<?xml version="1.0" encoding="UTF-8" standalone="no"?>
<!-- Created with Inkscape (http://www.inkscape.org/) -->

<svg
   xmlns:dc="http://purl.org/dc/elements/1.1/"
   xmlns:cc="http://creativecommons.org/ns#"
   xmlns:rdf="http://www.w3.org/1999/02/22-rdf-syntax-ns#"
   xmlns:svg="http://www.w3.org/2000/svg"
   xmlns="http://www.w3.org/2000/svg"
   xmlns:sodipodi="http://sodipodi.sourceforge.net/DTD/sodipodi-0.dtd"
   xmlns:inkscape="http://www.inkscape.org/namespaces/inkscape"
   width="611.93573"
   height="162.53304"
   id="svg2"
   version="1.1"
   inkscape:version="0.48.3.1 r9886"
   sodipodi:docname="Logov5.svg">
  <defs
     id="defs4" />
  <sodipodi:namedview
     id="base"
     pagecolor="#ffffff"
     bordercolor="#666666"
     borderopacity="1.0"
     inkscape:pageopacity="0.0"
     inkscape:pageshadow="2"
     inkscape:zoom="0.7"
     inkscape:cx="85.083761"
     inkscape:cy="185.93553"
     inkscape:document-units="px"
     inkscape:current-layer="text3807"
     showgrid="false"
     fit-margin-top="5"
     fit-margin-left="5"
     fit-margin-right="5"
     fit-margin-bottom="5"
     inkscape:window-width="1280"
     inkscape:window-height="949"
     inkscape:window-x="0"
     inkscape:window-y="25"
     inkscape:window-maximized="1"
     showguides="true"
     inkscape:guide-bbox="true" />
  <metadata
     id="metadata7">
    <rdf:RDF>
      <cc:Work
         rdf:about="">
        <dc:format>image/svg+xml</dc:format>
        <dc:type
           rdf:resource="http://purl.org/dc/dcmitype/StillImage" />
        <dc:title></dc:title>
      </cc:Work>
    </rdf:RDF>
  </metadata>
  <g
     inkscape:label="Capa 1"
     inkscape:groupmode="layer"
     id="layer1"
     transform="translate(-181.34192,-405.59485)">
    <rect
       style="fill:#6f5690;fill-opacity:1;stroke:#000000;stroke-width:0;stroke-miterlimit:4;stroke-opacity:0.75229361;stroke-dasharray:none"
       id="rect3755-6-7"
       width="152.53304"
       height="152.53304"
       x="186.34192"
       y="410.59485"
       ry="18.182745" />
    <path
       style="fill:#ffffff;fill-opacity:1"
       d="m 218.92605,540.67174 c -1.37072,-3.19776 -2.48813,-6.47078 -2.48313,-7.27339 0.005,-0.8026 5.90881,-6.80453 13.1196,-13.33761 7.21078,-6.53308 13.1146,-12.19277 13.1196,-12.57707 0.005,-0.3843 1.97839,-3.96908 4.38531,-7.96618 2.40693,-3.9971 4.37623,-8.64639 4.37623,-10.33177 0,-1.68539 1.44351,-5.52749 3.20779,-8.53802 2.92939,-4.99862 3.13258,-6.23697 2.34119,-14.26839 -0.89618,-9.09471 -2.51302,-11.94354 -6.01568,-10.59945 -2.21591,0.85033 -2.74985,10.17362 -0.85285,14.89201 1.30625,3.24906 -0.62189,6.87694 -3.65495,6.87694 -4.5373,0 -6.27866,-4.70495 -6.27866,-16.96416 0,-14.43537 0.66307,-15.15918 15.08322,-16.46513 l 10.54897,-0.95537 1.70862,-5.40032 c 1.21009,-3.82467 2.65901,-5.76167 4.96596,-6.63877 10.01599,-3.80807 17.32113,13.53477 8.21448,19.50167 -2.68645,1.76023 -3.04474,2.69016 -2.33513,6.0608 1.2038,5.71807 2.79631,6.80636 3.80383,2.59946 1.74077,-7.26863 5.36661,-8.80476 8.71616,-3.69271 1.88329,2.87426 1.81492,3.3684 -1.17087,8.46327 -4.19178,7.15273 -10.49844,13.49126 -13.42343,13.49126 -1.73293,0 -2.352,0.9054 -2.35106,3.43846 10e-4,2.84984 1.12479,4.06384 6.56434,7.09159 9.13926,5.0871 14.45925,9.27839 15.35357,12.09613 0.46911,1.47802 -1.23762,6.73789 -4.44709,13.70524 -5.71429,12.40499 -5.82072,15.76846 -0.60704,19.18459 1.72731,1.13178 3.14056,2.84409 3.14056,3.80514 0,4.21317 -15.13883,3.1777 -18.8459,-1.28905 -1.33874,-1.61307 -1.3411,-2.67956 -0.0131,-5.93019 1.7211,-4.21293 6.32936,-21.74771 6.34576,-24.14606 0.011,-1.60479 -2.76005,-2.44607 -11.86858,-3.60329 l -6.25176,-0.79427 -6.54287,8.79905 c -4.52618,6.08695 -9.34358,10.69403 -15.62938,14.94702 -12.14888,8.21998 -13.69239,10.08968 -13.22119,16.01531 0.35364,4.44741 0.11423,4.85544 -3.06333,5.22092 -3.04421,0.35012 -3.73813,-0.28287 -5.93917,-5.41766 z"
       id="path3783-40-0"
       inkscape:connector-curvature="0"
       sodipodi:nodetypes="csssssssssssscsssssssscssssssscscsssscc" />
    <g
       style="font-size:175.30993652px;font-style:normal;font-variant:normal;font-weight:normal;font-stretch:normal;line-height:125%;letter-spacing:0px;word-spacing:0px;fill:#000000;fill-opacity:1;stroke:none;font-family:Andale Mono;-inkscape-font-specification:Andale Mono"
       id="text3807">
      <path
         d="m 357.0221,425.62385 29.70339,0 0,127.80163 -29.70339,0 0,-127.80163"
         style="font-weight:bold;font-stretch:semi-condensed;text-align:start;line-height:125%;writing-mode:lr-tb;text-anchor:start;font-family:DejaVu Sans;-inkscape-font-specification:DejaVu Sans Bold Semi-Condensed"
         id="path3835" />
      <path
         d="m 495.6094,429.64707 0,27.04978 c -6.27747,-3.13859 -12.4407,-5.50687 -18.48972,-7.10485 -5.99211,-1.59777 -11.67028,-2.39671 -17.03451,-2.39681 -7.07637,10e-5 -12.32653,1.08438 -15.75051,3.25282 -3.36699,2.16865 -5.05047,5.5356 -5.05043,10.10086 -4e-5,3.42412 1.1413,6.10626 3.42402,8.04646 2.28264,1.88329 6.44853,3.5097 12.49769,4.87923 l 12.58328,2.82482 c 12.84,2.85342 21.94218,7.19051 27.30657,13.01128 5.36421,5.8209 8.04635,14.09561 8.04646,24.82416 -1.1e-4,14.09558 -3.76653,24.59591 -11.29928,31.50101 -7.47586,6.84804 -18.94633,10.27206 -34.41142,10.27206 -7.30463,0 -14.63774,-0.7704 -21.99934,-2.31121 -7.30461,-1.54081 -14.63772,-3.82349 -21.99935,-6.84805 l 0,-27.82018 c 7.36163,4.33713 14.46647,7.61848 21.31454,9.84407 6.84801,2.16857 13.46778,3.25284 19.85933,3.25282 6.44852,2e-5 11.38481,-1.19839 14.8089,-3.59523 3.48101,-2.39678 5.22156,-5.8208 5.22163,-10.27206 -7e-5,-3.99466 -1.16995,-7.07627 -3.50962,-9.24486 -2.33982,-2.1685 -7.01931,-4.10878 -14.03849,-5.82084 l -11.47048,-2.82482 c -11.4705,-2.73916 -19.88788,-7.10478 -25.25216,-13.09688 -5.30725,-5.99197 -7.96086,-14.06695 -7.96085,-24.22496 -1e-5,-12.72585 3.70934,-22.51283 11.12807,-29.36099 7.41868,-6.84792 18.03314,-10.27194 31.84341,-10.27207 6.33438,1.3e-4 12.84001,0.54227 19.51692,1.62641 6.67677,1.02734 13.58187,2.59668 20.71534,4.70803"
         style="font-weight:bold;font-stretch:semi-condensed;text-align:start;line-height:125%;writing-mode:lr-tb;text-anchor:start;font-family:DejaVu Sans;-inkscape-font-specification:DejaVu Sans Bold Semi-Condensed"
         id="path3837" />
      <path
         d="m 529.25041,425.62385 80.03652,0 0,24.90976 -50.33312,0 0,23.79695 47.3371,0 0,24.90976 -47.3371,0 0,29.27539 52.04513,0 0,24.90977 -81.74853,0 0,-127.80163"
         style="font-weight:bold;font-stretch:semi-condensed;text-align:start;line-height:125%;writing-mode:lr-tb;text-anchor:start;font-family:DejaVu Sans;-inkscape-font-specification:DejaVu Sans Bold Semi-Condensed"
         id="path3839" />
      <path
         d="m 631.93684,476.7445 9.34759,0 0,67.94972 33.58965,0 0,8.73126 -42.93724,0 0,-76.68098"
         style="font-size:105.18595886px;font-weight:normal;-inkscape-font-specification:DejaVu Sans Semi-Condensed"
         id="path3841" />
      <path
         d="m 707.89876,524.50961 c -6.88231,3e-5 -11.65882,0.87315 -14.32954,2.61938 -2.63651,1.74627 -3.95476,4.72517 -3.95474,8.93669 -2e-5,3.35556 0.99295,6.02629 2.9789,8.01222 1.98591,1.9517 4.69089,2.92754 8.11493,2.92753 4.72512,10e-6 8.50866,-1.84896 11.35063,-5.54691 2.8419,-3.73217 4.26287,-8.67988 4.26291,-14.84314 l 0,-2.10577 -8.42309,0 m 16.9489,-3.90339 0,32.81926 -8.52581,0 0,-8.73126 c -1.91749,3.49251 -4.33142,6.07764 -7.24181,7.75541 -2.87621,1.64353 -6.42007,2.46529 -10.63159,2.4653 -5.30725,-10e-6 -9.51879,-1.64353 -12.63464,-4.9306 -3.11586,-3.32129 -4.67379,-7.75539 -4.67379,-13.30232 0,-6.47138 1.93457,-11.35061 5.80372,-14.6377 3.90337,-3.28702 9.7242,-4.93055 17.46251,-4.93059 l 11.9156,0 0,-0.92448 c -4e-5,-4.34847 -1.28405,-7.70401 -3.85203,-10.06663 -2.56805,-2.39676 -6.18039,-3.59517 -10.83703,-3.59522 -2.94468,5e-5 -5.82085,0.39381 -8.62853,1.18129 -2.80771,0.78757 -5.51269,1.96886 -8.11493,3.54386 l 0,-8.73126 c 3.11584,-1.33531 6.12898,-2.32828 9.03942,-2.9789 2.94463,-0.68474 5.80369,-1.02715 8.57717,-1.0272 7.49857,5e-5 13.09684,2.15719 16.79483,6.4714 3.6979,4.31431 5.54687,10.85419 5.54691,19.61964"
         style="font-size:105.18595886px;font-weight:normal;-inkscape-font-specification:DejaVu Sans Semi-Condensed"
         id="path3843" />
      <path
         d="m 779.44369,524.71505 c -4e-5,-6.95073 -1.28405,-12.39492 -3.85202,-16.33258 -2.56806,-3.97182 -6.0948,-5.95775 -10.58023,-5.9578 -4.51974,5e-5 -8.0636,1.98598 -10.63159,5.9578 -2.56804,3.93766 -3.85204,9.38185 -3.85203,16.33258 -10e-6,6.95079 1.28399,12.4121 3.85203,16.38395 2.56799,3.93763 6.11185,5.90644 10.63159,5.90643 4.48543,10e-6 8.01217,-1.9688 10.58023,-5.90643 2.56797,-3.97185 3.85198,-9.43316 3.85202,-16.38395 m -28.91587,-20.08189 c 1.78048,-3.42397 4.02321,-5.95774 6.72821,-7.60133 2.73919,-1.67771 6.00913,-2.5166 9.80982,-2.51665 6.30016,5e-5 11.40195,2.77351 15.30538,8.32037 3.93757,5.54696 5.90638,12.84012 5.90644,21.8795 -6e-5,9.03944 -1.96887,16.3326 -5.90644,21.8795 -3.90343,5.54692 -9.00522,8.32037 -15.30538,8.32038 -3.80069,-10e-6 -7.07063,-0.82177 -9.80982,-2.4653 -2.705,-1.67777 -4.94773,-4.22866 -6.72821,-7.65269 l 0,8.62854 -8.57717,0 0,-79.91668 8.57717,0 0,31.12436"
         style="font-size:105.18595886px;font-weight:normal;-inkscape-font-specification:DejaVu Sans Semi-Condensed"
         id="path3845" />
    </g>
  </g>
</svg>
